<?xml version="1.0" encoding="UTF-8" standalone="no"?>
<svg
   xmlns:dc="http://purl.org/dc/elements/1.1/"
   xmlns:cc="http://creativecommons.org/ns#"
   xmlns:rdf="http://www.w3.org/1999/02/22-rdf-syntax-ns#"
   xmlns:svg="http://www.w3.org/2000/svg"
   xmlns="http://www.w3.org/2000/svg"
   xmlns:sodipodi="http://sodipodi.sourceforge.net/DTD/sodipodi-0.dtd"
   xmlns:inkscape="http://www.inkscape.org/namespaces/inkscape"
   inkscape:version="1.0 (4035a4fb49, 2020-05-01)"
   sodipodi:docname="softtek.svg"
   xml:space="preserve"
   enable-background="new 0 0 1080 1080"
   viewBox="0 0 1080 720"
   height="720"
   width="1080"
   y="0px"
   x="0px"
   id="Capa_2"
   version="1.1"><metadata
   id="metadata15"><rdf:RDF><cc:Work
       rdf:about=""><dc:format>image/svg+xml</dc:format><dc:type
         rdf:resource="http://purl.org/dc/dcmitype/StillImage" /><dc:title></dc:title></cc:Work></rdf:RDF></metadata><defs
   id="defs13" /><sodipodi:namedview
   inkscape:current-layer="g8"
   inkscape:window-maximized="1"
   inkscape:window-y="-8"
   inkscape:window-x="-8"
   inkscape:cy="647.44031"
   inkscape:cx="569.82622"
   inkscape:zoom="0.55651923"
   showgrid="false"
   id="namedview11"
   inkscape:window-height="1017"
   inkscape:window-width="1920"
   inkscape:pageshadow="2"
   inkscape:pageopacity="0"
   guidetolerance="10"
   gridtolerance="10"
   objecttolerance="10"
   borderopacity="1"
   bordercolor="#666666"
   pagecolor="#ffffff" />
<g
   id="g8">
	<g
   transform="matrix(0.89784126,0,0,0.89784126,45.177236,-110.98573)"
   id="g6">
		<path
   id="path2"
   d="m 721.3,391.55 c -2.5,-5.233 -3.75,-11.15 -3.75,-17.75 0,-11.167 3.816,-20.55 11.45,-28.15 7.7,-7.8 17.017,-11.7 27.95,-11.7 10.833,0 20.217,3.933 28.149,11.8 7.767,7.833 11.65,17.217 11.65,28.15 0,6.5 -1.366,12.383 -4.1,17.65 -1.867,3.733 -4.384,7.167 -7.551,10.3 -7.8,7.533 -17.183,11.3 -28.149,11.3 -11.533,0 -20.95,-3.667 -28.25,-11 -3.166,-3.167 -5.633,-6.7 -7.399,-10.6 z m 2.1,-207.9 c 10.966,-5.533 22.333,-8.3 34.1,-8.3 20.967,0 38.6,6.95 52.9,20.85 14.3,13.8 21.449,30.917 21.449,51.35 0,25.267 -10.267,42.983 -30.8,53.15 -6.633,3.4 -10.666,6.316 -12.1,8.75 -1.467,2.466 -2.2,7.667 -2.2,15.6 h -61.8 v -10.5 c 0,-13.9 1.517,-24.133 4.55,-30.7 3.134,-6.633 8.833,-11.8 17.1,-15.5 l 11.25,-4.9 c 8.634,-3.8 12.95,-9.15 12.95,-16.05 0,-4 -1.399,-7.4 -4.2,-10.2 -2.8,-2.8 -6.216,-4.2 -10.25,-4.2 -10.866,0 -16.3,7.567 -16.3,22.7 H 682.6 c 0,-20.167 4.667,-36.667 14,-49.5 6.867,-9.433 15.8,-16.95 26.8,-22.55 z M 848.85,576 h -85.2 c 0,10.2 1.316,17.583 3.949,22.15 3.4,6.8 9.65,10.199 18.75,10.199 12.101,0 19.867,-5.683 23.301,-17.05 h 34.65 c -2.666,28.4 -21.983,42.601 -57.95,42.601 -41.666,0 -62.5,-22.717 -62.5,-68.15 0,-20.066 5.5,-36.35 16.5,-48.85 11.367,-13.233 26.7,-19.85 46,-19.85 26.9,0 45.267,10.217 55.101,30.65 2.633,6.066 4.717,13.833 6.25,23.3 0.766,5.3 1.149,13.634 1.149,25 z m 55.1,-22.15 37.45,-54.55 h 43.2 l -44.3,56.8 47.101,74.4 H 942.55 l -38.6,-71 -0.601,0.6 v 70.4 h -38.6 V 443.65 h 38.6 v 109.6 z M 687.5,461.25 v 39.2 h 29 v 26.1 h -29 v 60.25 c 0,8.7 0.95,14.367 2.85,17 2.267,3.033 6.617,4.55 13.051,4.55 l 12.5,-1.1 v 22.7 c -5.301,2.633 -15.334,3.95 -30.101,3.95 -14.399,0 -24.25,-3.784 -29.55,-11.351 -4.9,-6.434 -7.35,-17.217 -7.35,-32.35 v -63.65 h -25.6 v -26.1 h 25.6 V 474.9 Z m 76.15,88.6 h 45.399 c 0,-18.166 -7.566,-27.25 -22.7,-27.25 -14.399,0 -21.965,9.084 -22.699,27.25 z m -1.1,135.35 -52.75,191.2 h 44.25 l 6.9,-31.601 h 49.2 l 7.1,31.601 H 862.6 L 809.85,685.2 Z m -113.25,0 v 191.2 h 43.5 V 685.2 Z m 227.1,0 V 876.4 H 987.5 V 829.3 H 919.75 V 685.2 Z m -19.225,95.475 v -111.9 l 81.8,-14.226 v 155.325 h 67.65 v 97.675 L 868.1,894.6 l -70.649,12.525 -4.601,-43.35 h -16.524 l -6.9,31.5 H 630.076 V 773.325 L 595.5,905.35 l -76.375,-12.274 -36,-129.7 V 909.35 L 418.4,895.275 h -75.575 l -13.3,-33.551 v 29.226 l -81.95,21.225 v -160.9 h -25.95 v 140.949 l -81.75,14.226 V 751.275 H 95.625 V 654.9 l 151.95,10.85 v -0.025 h 91.475 c 16.843,-0.002 29.693,2.106 38.55,6.325 l 0.05,0.025 c 9.515,3.952 17.39,11.094 23.625,21.425 V 651.75 L 466,665.725 h 75.875 l 16.225,70.601 15.976,-70.601 h 137.85 v 130.25 l 35.3,-127.824 76.601,-13.75 z M 174.6,475.45 c -6.067,4.167 -9.1,10.033 -9.1,17.6 0,9.1 3.783,15.534 11.35,19.3 3.4,1.9 10.983,4.183 22.75,6.85 22.333,5.3 37.467,10.216 45.4,14.75 16.3,8.7 24.45,21.2 24.45,37.5 0,21.566 -8.333,37.85 -25,48.85 -14,9.066 -32.167,13.601 -54.5,13.601 -48.867,0 -72.55,-21.2 -71.05,-63.601 h 40.35 c -0.767,10.233 1.5,18.566 6.8,25 5.7,6.434 13.667,9.65 23.9,9.65 24.966,0 37.45,-8.134 37.45,-24.4 0,-9.467 -5.1,-16.283 -15.3,-20.45 -1.167,-0.767 -10.267,-3.233 -27.3,-7.399 -40.9,-9.834 -61.35,-26.867 -61.35,-51.1 0,-20.1 8.15,-35.633 24.45,-46.6 14,-9.833 31.6,-14.75 52.8,-14.75 18.566,0 33.716,4.917 45.45,14.75 12.133,10.233 18.2,24.25 18.2,42.05 l -38.65,0.55 c -1.133,-18.934 -11.35,-28.4 -30.65,-28.4 -7.967,-0.001 -14.783,2.082 -20.45,6.249 z m 133.45,40.35 c 12.133,-12.5 28.617,-18.75 49.45,-18.75 20.833,0 37.3,6.25 49.4,18.75 11.733,12.467 17.6,28.934 17.6,49.4 0,20.833 -5.867,37.5 -17.6,50 -12.1,12.467 -28.566,18.7 -49.4,18.7 -20.834,0 -37.317,-6.233 -49.45,-18.7 -11.733,-12.5 -17.6,-29.167 -17.6,-50 0,-20.467 5.867,-36.933 17.6,-49.4 z M 159.3,732.3 v 144 h 43.4 v -144 h 44.25 V 685.05 H 115.1 v 47.25 z m 151.35,-8.6 h 19.05 c 7.933,0 13.333,1.649 16.2,4.95 2.867,3.333 4.3,8.05 4.3,14.149 0,4.2 -0.883,7.917 -2.65,11.15 -1.9,3.233 -4.267,5.233 -7.1,6 l -11.55,2.6 H 310.65 Z M 511.4,441.95 v 23.85 c -12.467,-1.133 -20.417,1.133 -23.85,6.8 -2.267,4.167 -3.2,13.45 -2.8,27.85 h 23.85 v 26.1 H 484.75 V 630.5 h -38.1 V 526.55 h -19.3 v -26.1 h 19.3 c -0.733,-20.833 1.167,-35.417 5.7,-43.75 6.433,-10.967 19.117,-16.45 38.05,-16.45 z m 6.85,58.5 H 543.8 V 474.9 l 38.65,-13.65 v 39.2 h 28.95 v 26.1 h -28.95 v 60.25 c 0,8.7 0.934,14.367 2.8,17 2.3,3.033 6.667,4.55 13.1,4.55 l 12.5,-1.1 v 22.7 c -5.3,2.633 -15.35,3.95 -30.149,3.95 -14.367,0 -24.2,-3.784 -29.5,-11.351 -4.934,-6.434 -7.4,-17.217 -7.4,-32.35 v -63.65 h -25.55 V 500.45 Z M 357.5,522.6 c -18.167,0 -27.25,14.2 -27.25,42.6 0,28.767 9.083,43.149 27.25,43.149 18.167,0 27.25,-14.383 27.25,-43.149 0,-28.4 -9.083,-42.6 -27.25,-42.6 z m 63.25,162.45 V 876.3 h 43.5 V 685.05 Z m -81.4,0 h -72.3 V 876.3 h 43.6 v -77.6 h 3.85 c 3.933,0 7.45,1.467 10.55,4.399 2.333,2.267 4.983,7.184 7.95,14.75 l 23.15,58.45 h 49 l -21,-55.45 -6.05,-11.899 -6.9,-10 c -2.4,-2.3 -6.167,-4.65 -11.3,-7.05 6.434,-2 11.5,-4.517 15.2,-7.551 5.8,-4.8 10.367,-11.033 13.7,-18.699 3.3,-7.733 4.95,-16.9 4.95,-27.5 0,-12.167 -2.183,-22.45 -6.55,-30.851 -4.333,-8.566 -10.034,-14.416 -17.1,-17.55 -7.067,-3.133 -17.317,-4.699 -30.75,-4.699 z m -9.825,77.1 c -0.12,-0.053 -0.236,-0.104 -0.35,-0.15 l 0.175,0.175 0.175,0.175 z M 589.45,685.2 558.3,822.8 526.65,685.2 H 481.3 l 53.05,191.2 h 47.05 l 52.05,-191.2 z m -278.075,131.5 -0.25,0.25 c 0.276,-0.018 0.401,-0.051 0.375,-0.101 -0.054,-0.05 -0.095,-0.1 -0.125,-0.149 z m 80.1,-21.725 2.775,4.075 7.025,13.75 v -30.35 c -2.83,4.671 -6.097,8.846 -9.8,12.525 z m 378.825,8.475 15.4,-68.75 15.399,68.75 z"
   fill="#232b68"
   clip-rule="evenodd"
   fill-rule="evenodd" />
		<path
   style="fill:#56a5eb;fill-opacity:1"
   id="path4"
   d="m 723.4,183.65 c -11,5.6 -19.934,13.117 -26.801,22.55 -9.333,12.833 -14,29.333 -14,49.5 h 57.45 c 0,-15.133 5.434,-22.7 16.3,-22.7 4.034,0 7.45,1.4 10.25,4.2 2.801,2.8 4.2,6.2 4.2,10.2 0,6.9 -4.316,12.25 -12.95,16.05 l -11.25,4.9 c -8.267,3.7 -13.966,8.867 -17.1,15.5 -3.033,6.566 -4.55,16.8 -4.55,30.7 v 10.5 h 61.8 c 0,-7.933 0.733,-13.133 2.2,-15.6 1.434,-2.434 5.467,-5.35 12.1,-8.75 20.533,-10.167 30.8,-27.883 30.8,-53.15 0,-20.433 -7.149,-37.55 -21.449,-51.35 -14.301,-13.9 -31.934,-20.85 -52.9,-20.85 -11.767,0 -23.134,2.767 -34.1,8.3 z m -2.1,207.9 c 1.767,3.9 4.233,7.434 7.4,10.6 7.3,7.333 16.717,11 28.25,11 10.967,0 20.35,-3.767 28.149,-11.3 3.167,-3.133 5.684,-6.567 7.551,-10.3 2.733,-5.267 4.1,-11.15 4.1,-17.65 0,-10.933 -3.884,-20.316 -11.65,-28.15 -7.933,-7.867 -17.316,-11.8 -28.149,-11.8 -10.934,0 -20.25,3.9 -27.95,11.7 -7.634,7.6 -11.45,16.983 -11.45,28.15 -0.001,6.6 1.249,12.517 3.749,17.75 z m 33.15,-253.6 c 42.666,0 79.083,15.066 109.25,45.2 30.166,30.2 45.25,66.633 45.25,109.3 0,42.667 -15.084,79.083 -45.25,109.25 -30.167,30.167 -66.584,45.25 -109.25,45.25 -28.167,0 -53.601,-6.55 -76.3,-19.65 l -78.2,19.65 19.75,-78.1 c -13.167,-22.733 -19.75,-48.2 -19.75,-76.4 0,-42.667 15.083,-79.1 45.25,-109.3 30.166,-30.133 66.583,-45.2 109.25,-45.2 z M 876.4,685.2 h 43.35 v 144.1 h 67.75 v 47.1 H 876.4 Z m -227.1,0 h 43.5 v 191.2 h -43.5 z m 113.25,0 h 47.3 l 52.75,191.2 h -45.35 l -7.1,-31.601 h -49.2 l -6.9,31.601 H 709.8 Z m -451.9,38.5 v 38.85 h 18.25 l 11.55,-2.6 c 2.833,-0.767 5.2,-2.767 7.1,-6 1.767,-3.233 2.65,-6.95 2.65,-11.15 0,-6.1 -1.434,-10.816 -4.3,-14.149 -2.867,-3.301 -8.267,-4.95 -16.2,-4.95 H 310.65 Z M 159.3,732.3 H 115.1 V 685.05 H 246.95 V 732.3 H 202.7 v 144 h -43.4 z m 180.05,-47.25 c 13.433,0 23.683,1.566 30.75,4.7 7.066,3.134 12.767,8.983 17.1,17.55 4.367,8.4 6.55,18.684 6.55,30.851 0,10.6 -1.65,19.767 -4.95,27.5 -3.333,7.666 -7.9,13.899 -13.7,18.699 -3.7,3.034 -8.767,5.551 -15.2,7.551 5.133,2.399 8.9,4.75 11.3,7.05 l 6.9,10 6.05,11.899 21,55.45 h -49 L 333,817.85 c -2.967,-7.566 -5.617,-12.483 -7.95,-14.75 -3.1,-2.933 -6.617,-4.399 -10.55,-4.399 h -3.85 v 77.6 h -43.6 V 685.05 Z m 81.4,0 h 43.5 V 876.3 h -43.5 z m 168.7,0.15 h 44 L 581.4,876.4 H 534.35 L 481.3,685.2 h 45.35 l 31.65,137.6 z m -259.925,76.95 v 0.199 l -0.175,-0.175 z m 440.775,41.3 h 30.8 L 785.7,734.7 Z"
   fill="#79CC52"
   clip-rule="evenodd"
   fill-rule="evenodd" />
	<path
   id="path870"
   d="m 919.86469,757.27059 c 0,-39.48353 0.16111,-55.63588 0.35803,-35.89412 0.19692,19.74177 0.19692,52.04647 0,71.78824 -0.19692,19.74176 -0.35803,3.58941 -0.35803,-35.89412 z"
   style="fill:#56a5eb;fill-opacity:1;stroke-width:1.27059" /><path
   id="path886"
   d="m 267.47408,780.60683 v -95.33382 l 43.35882,0.24656 c 41.21076,0.23435 43.64937,0.31242 49.2234,1.57592 10.40587,2.35876 16.98338,6.23601 22.15553,13.06004 3.84431,5.07211 7.35685,12.60826 9.23815,19.82042 1.32093,5.06393 1.49035,7.13403 1.48182,18.10588 -0.008,10.68788 -0.20372,13.15569 -1.42363,17.97968 -3.8249,15.12504 -12.56953,26.94165 -23.7833,32.13835 -2.90087,1.34432 -5.95246,2.70885 -6.78129,3.03229 -1.39768,0.5454 -1.13336,0.80514 3.64388,3.58091 9.86307,5.73084 15.10018,15.08367 28.88573,51.58642 5.41028,14.32588 10.14329,26.83662 10.51779,27.80165 l 0.68091,1.7546 -24.20428,-0.16637 -24.20428,-0.16635 -12.1896,-30.81177 c -6.70429,-16.94647 -13.17052,-32.8 -14.36941,-35.23006 -3.80689,-7.71636 -7.66035,-10.53481 -15.05965,-11.01475 l -4.60588,-0.29875 v 38.83648 38.83649 h -21.28236 -21.28235 z m 70.09128,-19.56423 c 6.46252,-1.74842 8.19373,-3.06538 10.68686,-8.12965 1.90523,-3.87007 2.05531,-4.63788 2.01329,-10.30057 -0.0715,-9.63097 -2.37346,-14.33089 -8.40451,-17.15914 -3.44426,-1.61518 -3.97894,-1.67193 -17.68692,-1.87719 l -14.13529,-0.21166 v 19.80866 19.80867 l 11.27647,-0.29675 c 8.79684,-0.23151 12.37014,-0.59264 16.2501,-1.64237 z"
   style="fill:#56a5eb;fill-opacity:1;stroke-width:0.635294" /><path
   id="path888"
   d="m 421.21526,780.64653 v -95.29411 h 21.28235 21.28235 v 95.29411 95.29412 h -21.28235 -21.28235 z"
   style="fill:#56a5eb;fill-opacity:1;stroke-width:0.635294" /><path
   id="path890"
   d="m 508.90997,783.34653 c -14.12105,-50.92676 -26.03606,-93.80911 -26.47782,-95.29411 l -0.80318,-2.7 22.36373,0.003 22.36373,0.003 15.84743,68.92933 c 8.71609,37.91113 16.02898,68.7135 16.25087,68.4497 0.30221,-0.3593 29.40726,-128.10351 30.97603,-135.9561 l 0.28556,-1.42941 h 21.59481 21.59481 l -0.42312,1.74706 c -0.53171,2.19545 -49.7331,183.21688 -50.67927,186.45882 l -0.6953,2.38235 H 557.84643 534.5846 Z"
   style="fill:#56a5eb;fill-opacity:1;stroke-width:0.635294" /><path
   id="path892"
   d="m 649.92114,780.64653 v -95.29411 h 21.28235 21.28235 v 95.29411 95.29412 h -21.28235 -21.28235 z"
   style="fill:#56a5eb;fill-opacity:1;stroke-width:0.635294" /><path
   id="path894"
   d="m 710.29972,875.78183 c 0.0141,-0.0874 11.82944,-42.89824 26.2563,-95.1353 l 26.23067,-94.97647 h 23.41648 23.41648 l 26.22393,94.97647 c 14.42316,52.23706 26.23335,95.05161 26.24486,95.14342 0.0115,0.0918 -10.0286,0.0918 -22.31136,0 l -22.33231,-0.16694 -2.36689,-10.48236 c -1.30178,-5.76529 -2.85918,-12.69794 -3.46088,-15.40588 l -1.09399,-4.92353 h -24.96142 -24.96141 l -0.95021,4.28824 c -0.52262,2.35853 -2.05239,9.36264 -3.39949,15.5647 l -2.44928,11.27647 h -21.76356 c -11.96996,0 -21.75202,-0.0715 -21.73792,-0.15882 z m 90.82142,-73.10236 c 0,-0.46071 -3.28893,-15.541 -7.30872,-33.51177 -6.53507,-29.21541 -8.39025,-36.72849 -8.53064,-34.54721 -0.0236,0.36744 -3.47358,15.93327 -7.66652,34.59075 -4.19294,18.65748 -7.62353,34.0089 -7.62353,34.11428 0,0.10538 7.00411,0.1916 15.5647,0.1916 12.45968,0 15.56471,-0.1671 15.56471,-0.83765 z"
   style="fill:#56a5eb;fill-opacity:1;stroke-width:0.635294" /><path
   id="path896"
   d="m 876.72114,780.64653 v -95.29411 h 21.28235 21.28235 v 72.10588 72.10588 h 33.98824 33.98824 v 23.18824 23.18823 h -55.27059 -55.27059 z"
   style="fill:#56a5eb;fill-opacity:1;stroke-width:0.635294" /><path
   id="path898"
   d="m 159.35579,803.83477 v -72.10588 h -21.91765 -21.91765 v -23.18824 -23.18823 h 65.4353 65.43529 v 23.18823 23.18824 h -21.91765 -21.91764 v 72.10588 72.10588 h -21.6 -21.6 z"
   style="fill:#56a5eb;fill-opacity:1;stroke-width:0.635294" /><path
   id="path1042"
   d="m 747.76914,446.6 c -24.16275,-1.25023 -43.59303,-6.21306 -63.15825,-16.13171 l -6.5898,-3.34072 -38.62747,9.67959 c -21.24512,5.32377 -38.71204,9.59503 -38.81539,9.49168 -0.10335,-0.10335 4.16604,-17.37792 9.48754,-38.38793 5.3215,-21.01001 9.67545,-38.58252 9.67545,-39.05003 0,-0.46751 -0.1833,-1.04206 -0.40734,-1.27677 -0.6737,-0.70582 -6.12458,-11.81704 -7.92253,-16.14949 -14.64605,-35.29217 -14.95104,-80.10178 -0.78883,-115.89896 14.48825,-36.6213 46.11421,-69.36802 81.9828,-84.88812 18.8573,-8.15942 35.89524,-11.74399 58.08376,-12.22009 17.12788,-0.36752 29.23956,0.94969 44.10245,4.79638 31.28806,8.09769 59.60909,27.02244 81.52468,54.47661 18.38672,23.03347 29.04524,49.99894 31.82331,80.51119 0.57863,6.35514 0.5789,21.94118 4.5e-4,28.30091 -2.90078,31.89541 -13.65933,58.44176 -33.56877,82.82978 -5.48879,6.72348 -17.7107,18.79729 -24.60438,24.30625 -15.75106,12.58715 -34.29655,22.25709 -52.47555,27.36166 -14.88528,4.17971 -34.45492,6.37973 -49.72218,5.58977 z m 20.58105,-34.70123 c 13.90159,-4.06861 24.92161,-15.77605 27.69843,-29.42625 1.03832,-5.10412 0.95052,-13.21844 -0.1952,-18.04258 -3.3849,-14.25221 -14.93639,-25.87236 -29.44162,-29.61658 -4.36212,-1.12598 -11.47548,-1.34298 -16.31032,-0.49754 -8.63319,1.50963 -15.21071,5.09208 -21.69029,11.81362 -4.53531,4.70466 -7.04599,8.73688 -8.89747,14.28959 -5.04769,15.13836 -1.15633,32.22678 9.67239,42.47507 5.47335,5.17998 10.5776,7.82061 18.63379,9.64 4.3954,0.99264 16.21791,0.62679 20.53029,-0.63533 z m 18.70445,-91.34808 c 0.38457,-5.55057 0.96807,-8.52946 2.11463,-10.79569 1.05497,-2.0852 5.36106,-5.32554 10.91877,-8.2164 15.33057,-7.97426 24.14156,-17.74071 28.75478,-31.87293 3.51332,-10.76278 4.14581,-26.27206 1.55674,-38.173 -2.03318,-9.34575 -5.77868,-17.91485 -11.09045,-25.37318 -3.8712,-5.43562 -11.71991,-13.29081 -17.19204,-17.20623 -4.8254,-3.45267 -14.25739,-8.28811 -19.36861,-9.92958 -26.07064,-8.3726 -53.82805,-2.91315 -74.83761,14.71937 -16.126,13.53394 -24.21497,31.93581 -25.44789,57.89225 l -0.20805,4.3799 h 28.88596 28.88596 l 0.31029,-3.48146 c 0.45183,-5.06958 1.41928,-8.87123 3.02355,-11.88115 2.59359,-4.86606 6.81363,-7.27714 12.71906,-7.26691 4.43409,0.008 7.16097,1.09866 10.195,4.07883 2.9324,2.88031 4.12531,5.77243 4.13111,10.0155 0.006,4.14898 -1.01719,6.6539 -4.03417,9.87929 -2.77432,2.96597 -5.65191,4.65844 -14.11032,8.29907 -8.01336,3.44907 -10.90509,4.991 -14.41498,7.68641 -9.7396,7.47946 -12.98749,18.04272 -12.98749,42.23977 v 9.61065 h 30.93837 30.93836 z"
   style="fill:#56a5eb;fill-opacity:1;stroke-width:0.449221" /></g>
</g>
</svg>
